<mxfile host="app.diagrams.net" modified="2022-11-21T17:14:09.635Z" agent="5.0 (Windows NT 10.0; Win64; x64) AppleWebKit/537.36 (KHTML, like Gecko) Chrome/107.0.0.0 Safari/537.36" etag="ELZpj_zUtVzsY011YsLs" version="20.5.3" type="github">
  <diagram id="wTYYPFrZuewPzAmAuWwE" name="Page-1">
    <mxGraphModel dx="2889" dy="1122" grid="1" gridSize="10" guides="1" tooltips="1" connect="1" arrows="1" fold="1" page="1" pageScale="1" pageWidth="827" pageHeight="1169" math="0" shadow="0">
      <root>
        <mxCell id="0" />
        <mxCell id="1" parent="0" />
        <mxCell id="6wIm65cFakoA2pX9dvvW-1" value="alt" style="shape=umlFrame;whiteSpace=wrap;html=1;fontSize=17;" parent="1" vertex="1">
          <mxGeometry x="-580" y="150" width="1188.86" height="2340" as="geometry" />
        </mxCell>
        <mxCell id="6wIm65cFakoA2pX9dvvW-38" value="loop" style="shape=umlFrame;whiteSpace=wrap;html=1;" parent="1" vertex="1">
          <mxGeometry x="-543.72" y="1850" width="1140" height="610" as="geometry" />
        </mxCell>
        <mxCell id="6wIm65cFakoA2pX9dvvW-33" value="alt" style="shape=umlFrame;whiteSpace=wrap;html=1;fontSize=15;" parent="1" vertex="1">
          <mxGeometry x="-487.72" y="2060" width="1045" height="350" as="geometry" />
        </mxCell>
        <mxCell id="6wIm65cFakoA2pX9dvvW-36" value="loop" style="shape=umlFrame;whiteSpace=wrap;html=1;" parent="1" vertex="1">
          <mxGeometry x="-558.86" y="960" width="1140" height="570" as="geometry" />
        </mxCell>
        <mxCell id="zkrP5aUea3qUz_NBRGNI-2" value="alt" style="shape=umlFrame;whiteSpace=wrap;html=1;fontSize=15;" parent="1" vertex="1">
          <mxGeometry x="-508.86" y="1140" width="1040" height="360" as="geometry" />
        </mxCell>
        <mxCell id="zkrP5aUea3qUz_NBRGNI-3" value="" style="endArrow=none;dashed=1;html=1;rounded=0;startArrow=none;exitX=0.5;exitY=1;exitDx=0;exitDy=0;" parent="1" source="zkrP5aUea3qUz_NBRGNI-10" edge="1">
          <mxGeometry width="50" height="50" relative="1" as="geometry">
            <mxPoint x="247.14" y="20" as="sourcePoint" />
            <mxPoint x="247.14" y="2550" as="targetPoint" />
          </mxGeometry>
        </mxCell>
        <mxCell id="zkrP5aUea3qUz_NBRGNI-5" value="" style="endArrow=none;dashed=1;html=1;rounded=0;startArrow=none;exitX=0.5;exitY=1;exitDx=0;exitDy=0;" parent="1" source="6wIm65cFakoA2pX9dvvW-3" edge="1">
          <mxGeometry width="50" height="50" relative="1" as="geometry">
            <mxPoint x="-16.139999999999986" y="3560" as="sourcePoint" />
            <mxPoint x="-13.860000000000014" y="2550" as="targetPoint" />
          </mxGeometry>
        </mxCell>
        <mxCell id="zkrP5aUea3qUz_NBRGNI-8" value="Back officer" style="shape=umlActor;verticalLabelPosition=bottom;verticalAlign=top;html=1;outlineConnect=0;" parent="1" vertex="1">
          <mxGeometry x="-307.72" y="50" width="30" height="60" as="geometry" />
        </mxCell>
        <mxCell id="zkrP5aUea3qUz_NBRGNI-9" value=":Main Interface" style="rounded=0;whiteSpace=wrap;html=1;" parent="1" vertex="1">
          <mxGeometry x="-68.86000000000001" y="80" width="110" height="30" as="geometry" />
        </mxCell>
        <mxCell id="zkrP5aUea3qUz_NBRGNI-10" value=":System" style="rounded=0;whiteSpace=wrap;html=1;" parent="1" vertex="1">
          <mxGeometry x="192.27999999999997" y="80" width="110" height="30" as="geometry" />
        </mxCell>
        <mxCell id="zkrP5aUea3qUz_NBRGNI-11" value="" style="endArrow=none;dashed=1;html=1;rounded=0;startArrow=none;" parent="1" target="zkrP5aUea3qUz_NBRGNI-8" edge="1">
          <mxGeometry width="50" height="50" relative="1" as="geometry">
            <mxPoint x="-292.8894117647054" y="230" as="sourcePoint" />
            <mxPoint x="-294.86" y="50" as="targetPoint" />
          </mxGeometry>
        </mxCell>
        <mxCell id="zkrP5aUea3qUz_NBRGNI-14" style="edgeStyle=orthogonalEdgeStyle;rounded=0;orthogonalLoop=1;jettySize=auto;html=1;exitX=0.5;exitY=1;exitDx=0;exitDy=0;" parent="1" edge="1">
          <mxGeometry relative="1" as="geometry">
            <mxPoint x="191.14" y="410" as="sourcePoint" />
            <mxPoint x="191.14" y="410" as="targetPoint" />
          </mxGeometry>
        </mxCell>
        <mxCell id="zkrP5aUea3qUz_NBRGNI-15" value=":Server" style="rounded=0;whiteSpace=wrap;html=1;" parent="1" vertex="1">
          <mxGeometry x="438.14" y="80" width="110" height="30" as="geometry" />
        </mxCell>
        <mxCell id="zkrP5aUea3qUz_NBRGNI-16" value="" style="endArrow=none;dashed=1;html=1;rounded=0;entryX=0.5;entryY=1;entryDx=0;entryDy=0;startArrow=none;" parent="1" target="zkrP5aUea3qUz_NBRGNI-15" edge="1">
          <mxGeometry width="50" height="50" relative="1" as="geometry">
            <mxPoint x="496.14" y="550" as="sourcePoint" />
            <mxPoint x="495.64" y="240" as="targetPoint" />
          </mxGeometry>
        </mxCell>
        <mxCell id="zkrP5aUea3qUz_NBRGNI-21" style="edgeStyle=orthogonalEdgeStyle;rounded=0;orthogonalLoop=1;jettySize=auto;html=1;exitX=0.5;exitY=1;exitDx=0;exitDy=0;dashed=1;" parent="1" edge="1">
          <mxGeometry relative="1" as="geometry">
            <mxPoint x="-458.86" y="220" as="sourcePoint" />
            <mxPoint x="-458.86" y="220" as="targetPoint" />
          </mxGeometry>
        </mxCell>
        <mxCell id="zkrP5aUea3qUz_NBRGNI-23" value="&lt;font style=&quot;font-size: 16px;&quot;&gt;[ Detail info ]&lt;/font&gt;" style="text;html=1;strokeColor=none;fillColor=none;align=center;verticalAlign=middle;whiteSpace=wrap;rounded=0;" parent="1" vertex="1">
          <mxGeometry x="-563.86" y="200" width="250" height="20" as="geometry" />
        </mxCell>
        <mxCell id="zkrP5aUea3qUz_NBRGNI-24" value="Click &quot;Detail&quot;" style="endArrow=classic;html=1;rounded=0;exitX=1.003;exitY=0.194;exitDx=0;exitDy=0;exitPerimeter=0;entryX=-0.183;entryY=0.194;entryDx=0;entryDy=0;entryPerimeter=0;" parent="1" edge="1">
          <mxGeometry x="-0.0317" y="17" width="50" height="50" relative="1" as="geometry">
            <mxPoint x="-288.82999999999936" y="250" as="sourcePoint" />
            <mxPoint x="-20.68999999999903" y="250" as="targetPoint" />
            <mxPoint as="offset" />
          </mxGeometry>
        </mxCell>
        <mxCell id="zkrP5aUea3qUz_NBRGNI-25" value="Require detail about a collector/janitor" style="endArrow=classic;html=1;rounded=0;exitX=1.026;exitY=0.159;exitDx=0;exitDy=0;exitPerimeter=0;entryX=-0.051;entryY=0.159;entryDx=0;entryDy=0;entryPerimeter=0;" parent="1" edge="1">
          <mxGeometry x="-0.0504" y="16" width="50" height="50" relative="1" as="geometry">
            <mxPoint x="-8.599999999999795" y="273.77999999999975" as="sourcePoint" />
            <mxPoint x="240.62999999999977" y="273.77999999999975" as="targetPoint" />
            <mxPoint as="offset" />
          </mxGeometry>
        </mxCell>
        <mxCell id="zkrP5aUea3qUz_NBRGNI-26" value="Querying" style="endArrow=classic;html=1;rounded=0;exitX=1.017;exitY=0.229;exitDx=0;exitDy=0;exitPerimeter=0;entryX=-0.08;entryY=0.276;entryDx=0;entryDy=0;entryPerimeter=0;" parent="1" target="zkrP5aUea3qUz_NBRGNI-45" edge="1">
          <mxGeometry x="-0.0504" y="16" width="50" height="50" relative="1" as="geometry">
            <mxPoint x="251.31000000000006" y="314.0499999999997" as="sourcePoint" />
            <mxPoint x="490.2099999999997" y="312.6600000000001" as="targetPoint" />
            <mxPoint as="offset" />
          </mxGeometry>
        </mxCell>
        <mxCell id="zkrP5aUea3qUz_NBRGNI-27" value="Query result" style="endArrow=classic;html=1;rounded=0;exitX=-0.054;exitY=0.855;exitDx=0;exitDy=0;dashed=1;entryX=1.052;entryY=0.184;entryDx=0;entryDy=0;exitPerimeter=0;entryPerimeter=0;" parent="1" source="zkrP5aUea3qUz_NBRGNI-45" edge="1">
          <mxGeometry x="0.0663" y="-10" width="50" height="50" relative="1" as="geometry">
            <mxPoint x="487.37999999999977" y="350.8800000000001" as="sourcePoint" />
            <mxPoint x="251.6599999999995" y="353.77999999999975" as="targetPoint" />
            <Array as="points" />
            <mxPoint as="offset" />
          </mxGeometry>
        </mxCell>
        <mxCell id="zkrP5aUea3qUz_NBRGNI-28" value="Show info" style="endArrow=classic;html=1;rounded=0;exitX=-0.197;exitY=0.264;exitDx=0;exitDy=0;exitPerimeter=0;entryX=1.141;entryY=0.264;entryDx=0;entryDy=0;entryPerimeter=0;" parent="1" edge="1">
          <mxGeometry x="-0.0426" y="-10" width="50" height="50" relative="1" as="geometry">
            <mxPoint x="237.75999999999976" y="374.98000000000036" as="sourcePoint" />
            <mxPoint x="-8.860000000001094" y="374.98000000000036" as="targetPoint" />
            <mxPoint as="offset" />
          </mxGeometry>
        </mxCell>
        <mxCell id="zkrP5aUea3qUz_NBRGNI-29" value="Click &quot;Working schedule&quot; on info board" style="endArrow=classic;html=1;rounded=0;exitX=1.093;exitY=0.2;exitDx=0;exitDy=0;exitPerimeter=0;entryX=0.057;entryY=0.2;entryDx=0;entryDy=0;entryPerimeter=0;" parent="1" edge="1">
          <mxGeometry x="-0.0317" y="17" width="50" height="50" relative="1" as="geometry">
            <mxPoint x="-288.85999999999973" y="424.98" as="sourcePoint" />
            <mxPoint x="-19.22000000000031" y="424.98" as="targetPoint" />
            <mxPoint as="offset" />
          </mxGeometry>
        </mxCell>
        <mxCell id="zkrP5aUea3qUz_NBRGNI-30" value="Require detail about working time" style="endArrow=classic;html=1;rounded=0;exitX=1.2;exitY=0.292;exitDx=0;exitDy=0;exitPerimeter=0;entryX=-0.174;entryY=0.292;entryDx=0;entryDy=0;entryPerimeter=0;" parent="1" edge="1">
          <mxGeometry x="-0.0504" y="16" width="50" height="50" relative="1" as="geometry">
            <mxPoint x="-3.980000000000018" y="454.9799999999997" as="sourcePoint" />
            <mxPoint x="242.2800000000011" y="454.9799999999997" as="targetPoint" />
            <mxPoint as="offset" />
          </mxGeometry>
        </mxCell>
        <mxCell id="zkrP5aUea3qUz_NBRGNI-31" value="Querying" style="endArrow=classic;html=1;rounded=0;exitX=1;exitY=0.211;exitDx=0;exitDy=0;exitPerimeter=0;entryX=0.011;entryY=0.141;entryDx=0;entryDy=0;entryPerimeter=0;" parent="1" target="zkrP5aUea3qUz_NBRGNI-47" edge="1">
          <mxGeometry x="-0.0504" y="16" width="50" height="50" relative="1" as="geometry">
            <mxPoint x="252.27999999999986" y="473.75999999999976" as="sourcePoint" />
            <mxPoint x="490.14" y="452.8000000000002" as="targetPoint" />
            <mxPoint as="offset" />
          </mxGeometry>
        </mxCell>
        <mxCell id="zkrP5aUea3qUz_NBRGNI-32" value="Query result" style="endArrow=classic;html=1;rounded=0;exitX=-0.027;exitY=0.713;exitDx=0;exitDy=0;exitPerimeter=0;dashed=1;entryX=1.086;entryY=0.225;entryDx=0;entryDy=0;entryPerimeter=0;" parent="1" source="zkrP5aUea3qUz_NBRGNI-47" edge="1">
          <mxGeometry x="0.0663" y="-10" width="50" height="50" relative="1" as="geometry">
            <mxPoint x="492.0799999999996" y="498.29999999999995" as="sourcePoint" />
            <mxPoint x="253.14" y="515.48" as="targetPoint" />
            <Array as="points" />
            <mxPoint as="offset" />
          </mxGeometry>
        </mxCell>
        <mxCell id="zkrP5aUea3qUz_NBRGNI-33" value="Show working schedule board" style="endArrow=classic;html=1;rounded=0;exitX=-0.06;exitY=0.234;exitDx=0;exitDy=0;exitPerimeter=0;entryX=0.957;entryY=0.234;entryDx=0;entryDy=0;entryPerimeter=0;" parent="1" edge="1">
          <mxGeometry x="-0.0426" y="-10" width="50" height="50" relative="1" as="geometry">
            <mxPoint x="240.96999999999957" y="544.9799999999998" as="sourcePoint" />
            <mxPoint x="-8.860000000000298" y="544.9799999999998" as="targetPoint" />
            <mxPoint as="offset" />
          </mxGeometry>
        </mxCell>
        <mxCell id="zkrP5aUea3qUz_NBRGNI-35" value="&lt;font style=&quot;font-size: 16px;&quot;&gt;[ Create route ]&lt;/font&gt;" style="text;html=1;strokeColor=none;fillColor=none;align=center;verticalAlign=middle;whiteSpace=wrap;rounded=0;" parent="1" vertex="1">
          <mxGeometry x="-547.72" y="740" width="190" height="20" as="geometry" />
        </mxCell>
        <mxCell id="zkrP5aUea3qUz_NBRGNI-36" value="Click &quot;Create Route&quot;" style="endArrow=classic;html=1;rounded=0;exitX=1.14;exitY=0.383;exitDx=0;exitDy=0;exitPerimeter=0;" parent="1" edge="1">
          <mxGeometry x="-0.0317" y="17" width="50" height="50" relative="1" as="geometry">
            <mxPoint x="-287.46000000000095" y="730" as="sourcePoint" />
            <mxPoint x="-18.85999999999973" y="730.1100000000001" as="targetPoint" />
            <mxPoint as="offset" />
          </mxGeometry>
        </mxCell>
        <mxCell id="zkrP5aUea3qUz_NBRGNI-37" value="Choose a route" style="endArrow=classic;html=1;rounded=0;exitX=1.14;exitY=0.383;exitDx=0;exitDy=0;exitPerimeter=0;entryX=-0.106;entryY=0.439;entryDx=0;entryDy=0;entryPerimeter=0;" parent="1" edge="1">
          <mxGeometry x="-0.0317" y="17" width="50" height="50" relative="1" as="geometry">
            <mxPoint x="-287.3999999999997" y="990.29" as="sourcePoint" />
            <mxPoint x="-18.85999999999973" y="990" as="targetPoint" />
            <mxPoint as="offset" />
          </mxGeometry>
        </mxCell>
        <mxCell id="zkrP5aUea3qUz_NBRGNI-39" value="Route info" style="endArrow=classic;html=1;rounded=0;entryX=-0.243;entryY=0.097;entryDx=0;entryDy=0;entryPerimeter=0;dashed=1;" parent="1" edge="1">
          <mxGeometry x="-0.0504" y="16" width="50" height="50" relative="1" as="geometry">
            <mxPoint x="-8.860000000000355" y="1040.4899999999998" as="sourcePoint" />
            <mxPoint x="238.71000000000026" y="1040" as="targetPoint" />
            <mxPoint as="offset" />
          </mxGeometry>
        </mxCell>
        <mxCell id="zkrP5aUea3qUz_NBRGNI-40" value="Show tick on the checkbox" style="endArrow=classic;html=1;rounded=0;entryX=1.141;entryY=0.603;entryDx=0;entryDy=0;entryPerimeter=0;" parent="1" edge="1">
          <mxGeometry x="-0.0426" y="-10" width="50" height="50" relative="1" as="geometry">
            <mxPoint x="238.99000000000035" y="1200" as="sourcePoint" />
            <mxPoint x="-8.599999999999852" y="1200.6899999999996" as="targetPoint" />
            <mxPoint as="offset" />
          </mxGeometry>
        </mxCell>
        <mxCell id="zkrP5aUea3qUz_NBRGNI-42" value="Enter working shift" style="endArrow=classic;html=1;rounded=0;exitX=1.189;exitY=0.475;exitDx=0;exitDy=0;exitPerimeter=0;entryX=-0.1;entryY=0.475;entryDx=0;entryDy=0;entryPerimeter=0;" parent="1" edge="1">
          <mxGeometry x="-0.0317" y="17" width="50" height="50" relative="1" as="geometry">
            <mxPoint x="-285.9700000000015" y="860" as="sourcePoint" />
            <mxPoint x="-18.860000000000014" y="860" as="targetPoint" />
            <mxPoint as="offset" />
          </mxGeometry>
        </mxCell>
        <mxCell id="zkrP5aUea3qUz_NBRGNI-44" value="" style="endArrow=none;dashed=1;html=1;rounded=0;entryX=0.5;entryY=1;entryDx=0;entryDy=0;startArrow=none;" parent="1" source="zkrP5aUea3qUz_NBRGNI-45" edge="1">
          <mxGeometry width="50" height="50" relative="1" as="geometry">
            <mxPoint x="496.13999999999953" y="2150" as="sourcePoint" />
            <mxPoint x="496.14" y="540" as="targetPoint" />
          </mxGeometry>
        </mxCell>
        <mxCell id="zkrP5aUea3qUz_NBRGNI-45" value="" style="rounded=0;whiteSpace=wrap;html=1;" parent="1" vertex="1">
          <mxGeometry x="491.14" y="294.98" width="10" height="70" as="geometry" />
        </mxCell>
        <mxCell id="zkrP5aUea3qUz_NBRGNI-46" value="" style="endArrow=none;dashed=1;html=1;rounded=0;entryX=0.5;entryY=1;entryDx=0;entryDy=0;startArrow=none;" parent="1" source="zkrP5aUea3qUz_NBRGNI-47" target="zkrP5aUea3qUz_NBRGNI-45" edge="1">
          <mxGeometry width="50" height="50" relative="1" as="geometry">
            <mxPoint x="496.13999999999953" y="1764.98" as="sourcePoint" />
            <mxPoint x="496.14" y="154.98000000000002" as="targetPoint" />
          </mxGeometry>
        </mxCell>
        <mxCell id="zkrP5aUea3qUz_NBRGNI-47" value="" style="rounded=0;whiteSpace=wrap;html=1;" parent="1" vertex="1">
          <mxGeometry x="491.14" y="464.98" width="10" height="70" as="geometry" />
        </mxCell>
        <mxCell id="zkrP5aUea3qUz_NBRGNI-48" value="" style="endArrow=none;dashed=1;html=1;rounded=0;entryX=0.5;entryY=1;entryDx=0;entryDy=0;startArrow=none;" parent="1" target="zkrP5aUea3qUz_NBRGNI-47" edge="1">
          <mxGeometry width="50" height="50" relative="1" as="geometry">
            <mxPoint x="493.21100423658584" y="1360" as="sourcePoint" />
            <mxPoint x="496.14" y="750" as="targetPoint" />
          </mxGeometry>
        </mxCell>
        <mxCell id="zkrP5aUea3qUz_NBRGNI-50" value="" style="rounded=0;whiteSpace=wrap;html=1;" parent="1" vertex="1">
          <mxGeometry x="488.99" y="1340" width="10" height="40" as="geometry" />
        </mxCell>
        <mxCell id="zkrP5aUea3qUz_NBRGNI-52" value="&lt;font style=&quot;font-size: 17px;&quot;&gt;[ Route has not been assigned ]&lt;/font&gt;" style="text;html=1;strokeColor=none;fillColor=none;align=center;verticalAlign=middle;whiteSpace=wrap;rounded=0;fontSize=15;" parent="1" vertex="1">
          <mxGeometry x="-502.94000000000005" y="1200" width="100.79" height="11" as="geometry" />
        </mxCell>
        <mxCell id="zkrP5aUea3qUz_NBRGNI-53" value="" style="endArrow=none;dashed=1;html=1;rounded=0;fontSize=17;entryX=0.999;entryY=0.691;entryDx=0;entryDy=0;entryPerimeter=0;exitX=0.001;exitY=0.691;exitDx=0;exitDy=0;exitPerimeter=0;strokeWidth=2;" parent="1" source="zkrP5aUea3qUz_NBRGNI-2" target="zkrP5aUea3qUz_NBRGNI-2" edge="1">
          <mxGeometry width="50" height="50" relative="1" as="geometry">
            <mxPoint x="-502.15" y="1390" as="sourcePoint" />
            <mxPoint x="547.85" y="1480" as="targetPoint" />
          </mxGeometry>
        </mxCell>
        <mxCell id="zkrP5aUea3qUz_NBRGNI-54" value="&lt;span style=&quot;font-size: 17px;&quot;&gt;[ Route has already been assigned ]&lt;/span&gt;" style="text;html=1;strokeColor=none;fillColor=none;align=center;verticalAlign=middle;whiteSpace=wrap;rounded=0;fontSize=15;" parent="1" vertex="1">
          <mxGeometry x="-492.15" y="1430" width="100" height="10" as="geometry" />
        </mxCell>
        <mxCell id="zkrP5aUea3qUz_NBRGNI-56" value="" style="endArrow=none;dashed=1;html=1;rounded=0;startArrow=none;entryX=0.5;entryY=1;entryDx=0;entryDy=0;exitX=0.5;exitY=0;exitDx=0;exitDy=0;" parent="1" source="zkrP5aUea3qUz_NBRGNI-87" target="zkrP5aUea3qUz_NBRGNI-50" edge="1">
          <mxGeometry width="50" height="50" relative="1" as="geometry">
            <mxPoint x="497.14" y="1950" as="sourcePoint" />
            <mxPoint x="497.14" y="1160" as="targetPoint" />
          </mxGeometry>
        </mxCell>
        <mxCell id="zkrP5aUea3qUz_NBRGNI-57" value="" style="endArrow=none;dashed=1;html=1;rounded=0;startArrow=none;entryX=0.418;entryY=1.001;entryDx=0;entryDy=0;entryPerimeter=0;" parent="1" target="6wIm65cFakoA2pX9dvvW-5" edge="1">
          <mxGeometry width="50" height="50" relative="1" as="geometry">
            <mxPoint x="-293.86" y="2550" as="sourcePoint" />
            <mxPoint x="-295.73195876288764" y="3340" as="targetPoint" />
          </mxGeometry>
        </mxCell>
        <mxCell id="zkrP5aUea3qUz_NBRGNI-58" value="Shift info" style="endArrow=classic;html=1;rounded=0;entryX=-0.095;entryY=0.487;entryDx=0;entryDy=0;entryPerimeter=0;dashed=1;" parent="1" edge="1">
          <mxGeometry x="-0.0317" y="17" width="50" height="50" relative="1" as="geometry">
            <mxPoint x="-8.860000000000014" y="900" as="sourcePoint" />
            <mxPoint x="239.19000000000108" y="900.3999999999996" as="targetPoint" />
            <mxPoint as="offset" />
          </mxGeometry>
        </mxCell>
        <mxCell id="zkrP5aUea3qUz_NBRGNI-60" value="" style="endArrow=none;dashed=1;html=1;rounded=0;entryX=0.5;entryY=1;entryDx=0;entryDy=0;startArrow=none;" parent="1" source="zkrP5aUea3qUz_NBRGNI-50" edge="1">
          <mxGeometry width="50" height="50" relative="1" as="geometry">
            <mxPoint x="493.9635308246594" y="1380" as="sourcePoint" />
            <mxPoint x="493.9899999999999" y="1120" as="targetPoint" />
          </mxGeometry>
        </mxCell>
        <mxCell id="zkrP5aUea3qUz_NBRGNI-61" value="Click &quot;Confirm&quot;" style="endArrow=classic;html=1;rounded=0;exitX=1.14;exitY=0.383;exitDx=0;exitDy=0;exitPerimeter=0;" parent="1" edge="1">
          <mxGeometry x="-0.0317" y="17" width="50" height="50" relative="1" as="geometry">
            <mxPoint x="-290.75000000000097" y="1250" as="sourcePoint" />
            <mxPoint x="-22.149999999999693" y="1250.1100000000001" as="targetPoint" />
            <mxPoint as="offset" />
          </mxGeometry>
        </mxCell>
        <mxCell id="zkrP5aUea3qUz_NBRGNI-63" value="Request routing feature" style="endArrow=classic;html=1;rounded=0;exitX=1.091;exitY=0.259;exitDx=0;exitDy=0;exitPerimeter=0;entryX=-0.017;entryY=0.259;entryDx=0;entryDy=0;entryPerimeter=0;" parent="1" edge="1">
          <mxGeometry x="-0.0317" y="17" width="50" height="50" relative="1" as="geometry">
            <mxPoint x="-8.860000000000184" y="770.0000000000002" as="sourcePoint" />
            <mxPoint x="240.05999999999983" y="770.0000000000002" as="targetPoint" />
            <mxPoint as="offset" />
          </mxGeometry>
        </mxCell>
        <mxCell id="zkrP5aUea3qUz_NBRGNI-64" value="Show time table" style="endArrow=classic;html=1;rounded=0;exitX=-0.06;exitY=0.234;exitDx=0;exitDy=0;exitPerimeter=0;entryX=0.957;entryY=0.234;entryDx=0;entryDy=0;entryPerimeter=0;" parent="1" edge="1">
          <mxGeometry x="-0.0426" y="-10" width="50" height="50" relative="1" as="geometry">
            <mxPoint x="240.9699999999999" y="830" as="sourcePoint" />
            <mxPoint x="-8.860000000000014" y="830" as="targetPoint" />
            <mxPoint as="offset" />
          </mxGeometry>
        </mxCell>
        <mxCell id="zkrP5aUea3qUz_NBRGNI-65" value="Show route list" style="endArrow=classic;html=1;rounded=0;exitX=-0.06;exitY=0.234;exitDx=0;exitDy=0;exitPerimeter=0;entryX=0.957;entryY=0.234;entryDx=0;entryDy=0;entryPerimeter=0;" parent="1" edge="1">
          <mxGeometry x="-0.0426" y="-10" width="50" height="50" relative="1" as="geometry">
            <mxPoint x="242.2799999999985" y="940" as="sourcePoint" />
            <mxPoint x="-7.550000000000523" y="940" as="targetPoint" />
            <mxPoint as="offset" />
          </mxGeometry>
        </mxCell>
        <mxCell id="zkrP5aUea3qUz_NBRGNI-66" value="Confirmation" style="endArrow=classic;html=1;rounded=0;exitX=1.14;exitY=0.383;exitDx=0;exitDy=0;exitPerimeter=0;" parent="1" edge="1">
          <mxGeometry x="-0.0317" y="17" width="50" height="50" relative="1" as="geometry">
            <mxPoint x="-12.150000000000034" y="1319.5000000000005" as="sourcePoint" />
            <mxPoint x="237.85000000000002" y="1319.5" as="targetPoint" />
            <mxPoint as="offset" />
          </mxGeometry>
        </mxCell>
        <mxCell id="zkrP5aUea3qUz_NBRGNI-69" value="" style="endArrow=none;dashed=1;html=1;rounded=0;exitX=0;exitY=0.229;exitDx=0;exitDy=0;exitPerimeter=0;strokeWidth=3;" parent="1" edge="1">
          <mxGeometry width="50" height="50" relative="1" as="geometry">
            <mxPoint x="-579.9999999999998" y="1580.0025000000005" as="sourcePoint" />
            <mxPoint x="611.1399999999996" y="1581.67" as="targetPoint" />
            <Array as="points" />
          </mxGeometry>
        </mxCell>
        <mxCell id="zkrP5aUea3qUz_NBRGNI-70" value="&lt;span style=&quot;font-size: 16px;&quot;&gt;[ Assigning section ]&lt;/span&gt;" style="text;html=1;strokeColor=none;fillColor=none;align=center;verticalAlign=middle;whiteSpace=wrap;rounded=0;" parent="1" vertex="1">
          <mxGeometry x="-546.58" y="1620" width="190" height="20" as="geometry" />
        </mxCell>
        <mxCell id="zkrP5aUea3qUz_NBRGNI-71" value="Click &quot;Choose a section&quot;" style="endArrow=classic;html=1;rounded=0;exitX=1.14;exitY=0.383;exitDx=0;exitDy=0;exitPerimeter=0;" parent="1" edge="1">
          <mxGeometry x="-0.0317" y="17" width="50" height="50" relative="1" as="geometry">
            <mxPoint x="-285.1800000000004" y="1640" as="sourcePoint" />
            <mxPoint x="-16.58000000000004" y="1640.1100000000006" as="targetPoint" />
            <mxPoint as="offset" />
          </mxGeometry>
        </mxCell>
        <mxCell id="zkrP5aUea3qUz_NBRGNI-72" value="Choose a section" style="endArrow=classic;html=1;rounded=0;exitX=1.14;exitY=0.383;exitDx=0;exitDy=0;exitPerimeter=0;entryX=-0.106;entryY=0.439;entryDx=0;entryDy=0;entryPerimeter=0;" parent="1" edge="1">
          <mxGeometry x="-0.0317" y="17" width="50" height="50" relative="1" as="geometry">
            <mxPoint x="-286.58000000000004" y="1880.29" as="sourcePoint" />
            <mxPoint x="-18.040000000000077" y="1880" as="targetPoint" />
            <mxPoint as="offset" />
          </mxGeometry>
        </mxCell>
        <mxCell id="zkrP5aUea3qUz_NBRGNI-73" value="Section info" style="endArrow=classic;html=1;rounded=0;entryX=-0.243;entryY=0.097;entryDx=0;entryDy=0;entryPerimeter=0;dashed=1;" parent="1" edge="1">
          <mxGeometry x="-0.0504" y="16" width="50" height="50" relative="1" as="geometry">
            <mxPoint x="-4.14999999999975" y="1920.4899999999998" as="sourcePoint" />
            <mxPoint x="243.41999999999996" y="1920" as="targetPoint" />
            <mxPoint as="offset" />
          </mxGeometry>
        </mxCell>
        <mxCell id="zkrP5aUea3qUz_NBRGNI-74" value="Querying for section status at given shift" style="endArrow=classic;html=1;rounded=0;exitX=1;exitY=0.482;exitDx=0;exitDy=0;exitPerimeter=0;entryX=-0.133;entryY=0.479;entryDx=0;entryDy=0;entryPerimeter=0;" parent="1" edge="1">
          <mxGeometry x="0.0085" y="-11" width="50" height="50" relative="1" as="geometry">
            <mxPoint x="252.27999999999963" y="1950.2799999999997" as="sourcePoint" />
            <mxPoint x="490.9499999999997" y="1950" as="targetPoint" />
            <Array as="points" />
            <mxPoint as="offset" />
          </mxGeometry>
        </mxCell>
        <mxCell id="zkrP5aUea3qUz_NBRGNI-75" value="Section status" style="endArrow=classic;html=1;rounded=0;exitX=-0.2;exitY=0.507;exitDx=0;exitDy=0;exitPerimeter=0;dashed=1;" parent="1" edge="1">
          <mxGeometry x="-0.0426" y="-10" width="50" height="50" relative="1" as="geometry">
            <mxPoint x="492.27999999999963" y="2010" as="sourcePoint" />
            <mxPoint x="254.27999999999963" y="2010.2600000000002" as="targetPoint" />
            <mxPoint as="offset" />
          </mxGeometry>
        </mxCell>
        <mxCell id="zkrP5aUea3qUz_NBRGNI-76" value="Enter work shift" style="endArrow=classic;html=1;rounded=0;exitX=1.189;exitY=0.475;exitDx=0;exitDy=0;exitPerimeter=0;entryX=-0.1;entryY=0.475;entryDx=0;entryDy=0;entryPerimeter=0;" parent="1" edge="1">
          <mxGeometry x="-0.0317" y="17" width="50" height="50" relative="1" as="geometry">
            <mxPoint x="-286.58000000000004" y="1750" as="sourcePoint" />
            <mxPoint x="-19.47000000000037" y="1750" as="targetPoint" />
            <mxPoint as="offset" />
          </mxGeometry>
        </mxCell>
        <mxCell id="zkrP5aUea3qUz_NBRGNI-77" value="Shift info" style="endArrow=classic;html=1;rounded=0;entryX=-0.095;entryY=0.487;entryDx=0;entryDy=0;entryPerimeter=0;dashed=1;" parent="1" edge="1">
          <mxGeometry x="-0.0317" y="17" width="50" height="50" relative="1" as="geometry">
            <mxPoint x="-7.720000000000368" y="1780" as="sourcePoint" />
            <mxPoint x="240.3299999999998" y="1780.3999999999996" as="targetPoint" />
            <mxPoint as="offset" />
          </mxGeometry>
        </mxCell>
        <mxCell id="zkrP5aUea3qUz_NBRGNI-78" value="Request sectioning feature" style="endArrow=classic;html=1;rounded=0;exitX=1.091;exitY=0.259;exitDx=0;exitDy=0;exitPerimeter=0;entryX=-0.017;entryY=0.259;entryDx=0;entryDy=0;entryPerimeter=0;" parent="1" edge="1">
          <mxGeometry x="-0.0317" y="17" width="50" height="50" relative="1" as="geometry">
            <mxPoint x="-6.809999999999604" y="1658.8000000000002" as="sourcePoint" />
            <mxPoint x="242.10999999999956" y="1658.8000000000002" as="targetPoint" />
            <mxPoint as="offset" />
          </mxGeometry>
        </mxCell>
        <mxCell id="zkrP5aUea3qUz_NBRGNI-79" value="Show time table" style="endArrow=classic;html=1;rounded=0;exitX=-0.06;exitY=0.234;exitDx=0;exitDy=0;exitPerimeter=0;entryX=0.957;entryY=0.234;entryDx=0;entryDy=0;entryPerimeter=0;" parent="1" edge="1">
          <mxGeometry x="-0.0426" y="-10" width="50" height="50" relative="1" as="geometry">
            <mxPoint x="242.10999999999956" y="1710" as="sourcePoint" />
            <mxPoint x="-7.720000000000368" y="1710" as="targetPoint" />
            <mxPoint as="offset" />
          </mxGeometry>
        </mxCell>
        <mxCell id="zkrP5aUea3qUz_NBRGNI-80" value="Show area list" style="endArrow=classic;html=1;rounded=0;exitX=-0.06;exitY=0.234;exitDx=0;exitDy=0;exitPerimeter=0;entryX=0.957;entryY=0.234;entryDx=0;entryDy=0;entryPerimeter=0;" parent="1" edge="1">
          <mxGeometry x="-0.0426" y="-10" width="50" height="50" relative="1" as="geometry">
            <mxPoint x="243.41999999999905" y="1830" as="sourcePoint" />
            <mxPoint x="-6.410000000000878" y="1830" as="targetPoint" />
            <mxPoint as="offset" />
          </mxGeometry>
        </mxCell>
        <mxCell id="zkrP5aUea3qUz_NBRGNI-83" value="&lt;font style=&quot;font-size: 17px;&quot;&gt;[ Section has not been assigned]&lt;/font&gt;" style="text;html=1;strokeColor=none;fillColor=none;align=center;verticalAlign=middle;whiteSpace=wrap;rounded=0;fontSize=15;" parent="1" vertex="1">
          <mxGeometry x="-470.44" y="2140" width="102.72" height="11" as="geometry" />
        </mxCell>
        <mxCell id="zkrP5aUea3qUz_NBRGNI-84" value="&lt;font style=&quot;font-size: 17px;&quot;&gt;[ Section has already been assigned ]&lt;/font&gt;" style="text;html=1;strokeColor=none;fillColor=none;align=center;verticalAlign=middle;whiteSpace=wrap;rounded=0;fontSize=15;" parent="1" vertex="1">
          <mxGeometry x="-470.44" y="2330" width="92.72" height="11" as="geometry" />
        </mxCell>
        <mxCell id="zkrP5aUea3qUz_NBRGNI-85" value="" style="endArrow=none;dashed=1;html=1;rounded=0;fontSize=16;exitX=0;exitY=0.66;exitDx=0;exitDy=0;exitPerimeter=0;entryX=1.005;entryY=0.659;entryDx=0;entryDy=0;entryPerimeter=0;strokeWidth=2;" parent="1" edge="1">
          <mxGeometry width="50" height="50" relative="1" as="geometry">
            <mxPoint x="-486.58000000000015" y="2287.6000000000004" as="sourcePoint" />
            <mxPoint x="558.6199999999997" y="2287.24" as="targetPoint" />
          </mxGeometry>
        </mxCell>
        <mxCell id="zkrP5aUea3qUz_NBRGNI-87" value="" style="rounded=0;whiteSpace=wrap;html=1;" parent="1" vertex="1">
          <mxGeometry x="494.55999999999995" y="1940" width="10" height="80" as="geometry" />
        </mxCell>
        <mxCell id="zkrP5aUea3qUz_NBRGNI-88" value="" style="endArrow=none;dashed=1;html=1;rounded=0;entryX=0.5;entryY=1;entryDx=0;entryDy=0;startArrow=none;" parent="1" source="zkrP5aUea3qUz_NBRGNI-92" target="zkrP5aUea3qUz_NBRGNI-87" edge="1">
          <mxGeometry width="50" height="50" relative="1" as="geometry">
            <mxPoint x="503.4199999999995" y="2550" as="sourcePoint" />
            <mxPoint x="499.55999999999983" y="1570.0000000000005" as="targetPoint" />
          </mxGeometry>
        </mxCell>
        <mxCell id="zkrP5aUea3qUz_NBRGNI-89" value="Show tick on the checkbox" style="endArrow=classic;html=1;rounded=0;entryX=1.141;entryY=0.603;entryDx=0;entryDy=0;entryPerimeter=0;" parent="1" edge="1">
          <mxGeometry x="-0.0426" y="-10" width="50" height="50" relative="1" as="geometry">
            <mxPoint x="243.41999999999996" y="2100.5499999999993" as="sourcePoint" />
            <mxPoint x="-4.1700000000001864" y="2101.24" as="targetPoint" />
            <mxPoint as="offset" />
          </mxGeometry>
        </mxCell>
        <mxCell id="zkrP5aUea3qUz_NBRGNI-90" value="Click &quot;Confirm&quot;" style="endArrow=classic;html=1;rounded=0;exitX=1.14;exitY=0.383;exitDx=0;exitDy=0;exitPerimeter=0;" parent="1" edge="1">
          <mxGeometry x="-0.0317" y="17" width="50" height="50" relative="1" as="geometry">
            <mxPoint x="-286.58000000000004" y="2139.55" as="sourcePoint" />
            <mxPoint x="-17.979999999999677" y="2139.66" as="targetPoint" />
            <mxPoint as="offset" />
          </mxGeometry>
        </mxCell>
        <mxCell id="zkrP5aUea3qUz_NBRGNI-91" value="Confirmation" style="endArrow=classic;html=1;rounded=0;exitX=1.14;exitY=0.383;exitDx=0;exitDy=0;exitPerimeter=0;" parent="1" edge="1">
          <mxGeometry x="-0.0317" y="17" width="50" height="50" relative="1" as="geometry">
            <mxPoint x="-6.580000000000041" y="2169.55" as="sourcePoint" />
            <mxPoint x="243.41999999999996" y="2169.55" as="targetPoint" />
            <mxPoint as="offset" />
          </mxGeometry>
        </mxCell>
        <mxCell id="zkrP5aUea3qUz_NBRGNI-92" value="" style="rounded=0;whiteSpace=wrap;html=1;" parent="1" vertex="1">
          <mxGeometry x="494.55999999999995" y="2190" width="10" height="40" as="geometry" />
        </mxCell>
        <mxCell id="zkrP5aUea3qUz_NBRGNI-93" value="" style="endArrow=none;dashed=1;html=1;rounded=0;entryX=0.5;entryY=1;entryDx=0;entryDy=0;startArrow=none;" parent="1" target="zkrP5aUea3qUz_NBRGNI-92" edge="1">
          <mxGeometry width="50" height="50" relative="1" as="geometry">
            <mxPoint x="499.14" y="2550" as="sourcePoint" />
            <mxPoint x="496.1399999999999" y="3200" as="targetPoint" />
          </mxGeometry>
        </mxCell>
        <mxCell id="6wIm65cFakoA2pX9dvvW-2" value="" style="rounded=0;whiteSpace=wrap;html=1;" parent="1" vertex="1">
          <mxGeometry x="242.27999999999997" y="230" width="10" height="2160" as="geometry" />
        </mxCell>
        <mxCell id="6wIm65cFakoA2pX9dvvW-3" value="" style="rounded=0;whiteSpace=wrap;html=1;" parent="1" vertex="1">
          <mxGeometry x="-18.860000000000014" y="230" width="10" height="2160" as="geometry" />
        </mxCell>
        <mxCell id="6wIm65cFakoA2pX9dvvW-4" value="" style="endArrow=none;dashed=1;html=1;rounded=0;startArrow=none;exitX=0.5;exitY=1;exitDx=0;exitDy=0;" parent="1" source="zkrP5aUea3qUz_NBRGNI-9" target="6wIm65cFakoA2pX9dvvW-3" edge="1">
          <mxGeometry width="50" height="50" relative="1" as="geometry">
            <mxPoint x="-13.860000000000014" y="30" as="sourcePoint" />
            <mxPoint x="-13.860000000000014" y="3390" as="targetPoint" />
          </mxGeometry>
        </mxCell>
        <mxCell id="6wIm65cFakoA2pX9dvvW-5" value="" style="rounded=0;whiteSpace=wrap;html=1;" parent="1" vertex="1">
          <mxGeometry x="-297.72" y="230" width="10" height="1960" as="geometry" />
        </mxCell>
        <mxCell id="zkrP5aUea3qUz_NBRGNI-94" value="Update section status at given shift" style="endArrow=classic;html=1;rounded=0;exitX=1.067;exitY=0.581;exitDx=0;exitDy=0;exitPerimeter=0;" parent="1" edge="1">
          <mxGeometry x="0.0085" y="-11" width="50" height="50" relative="1" as="geometry">
            <mxPoint x="255.22999999999945" y="2210.2300000000005" as="sourcePoint" />
            <mxPoint x="494.55999999999847" y="2210" as="targetPoint" />
            <Array as="points" />
            <mxPoint as="offset" />
          </mxGeometry>
        </mxCell>
        <mxCell id="6wIm65cFakoA2pX9dvvW-8" value="opt" style="shape=umlFrame;whiteSpace=wrap;html=1;fontSize=17;" parent="1" vertex="1">
          <mxGeometry x="-508.86" y="394.98" width="1090" height="200" as="geometry" />
        </mxCell>
        <mxCell id="6wIm65cFakoA2pX9dvvW-9" value="&lt;font style=&quot;font-size: 16px;&quot;&gt;[ Working schedule info ]&lt;/font&gt;" style="text;html=1;strokeColor=none;fillColor=none;align=center;verticalAlign=middle;whiteSpace=wrap;rounded=0;" parent="1" vertex="1">
          <mxGeometry x="-494.65" y="424.98" width="180" height="40" as="geometry" />
        </mxCell>
        <mxCell id="zkrP5aUea3qUz_NBRGNI-55" value="Display &quot;Route has been assigned. Please choose another one&quot;" style="endArrow=classic;html=1;rounded=0;entryX=0.922;entryY=0.525;entryDx=0;entryDy=0;entryPerimeter=0;exitX=-0.104;exitY=0.525;exitDx=0;exitDy=0;exitPerimeter=0;" parent="1" edge="1">
          <mxGeometry x="-0.0426" y="-10" width="50" height="50" relative="1" as="geometry">
            <mxPoint x="237.5899999999998" y="1440" as="sourcePoint" />
            <mxPoint x="-12.150000000000034" y="1440" as="targetPoint" />
            <mxPoint as="offset" />
          </mxGeometry>
        </mxCell>
        <mxCell id="zkrP5aUea3qUz_NBRGNI-62" value="Update route status at given shift" style="endArrow=classic;html=1;rounded=0;exitX=1.067;exitY=0.581;exitDx=0;exitDy=0;exitPerimeter=0;" parent="1" edge="1">
          <mxGeometry x="0.0085" y="-11" width="50" height="50" relative="1" as="geometry">
            <mxPoint x="248.520000000001" y="1360.2300000000005" as="sourcePoint" />
            <mxPoint x="487.85" y="1360" as="targetPoint" />
            <Array as="points" />
            <mxPoint as="offset" />
          </mxGeometry>
        </mxCell>
        <mxCell id="zkrP5aUea3qUz_NBRGNI-86" value="Display &quot;Section has been assigned. Please choose another one&quot;" style="endArrow=classic;html=1;rounded=0;entryX=0.922;entryY=0.525;entryDx=0;entryDy=0;entryPerimeter=0;exitX=-0.104;exitY=0.525;exitDx=0;exitDy=0;exitPerimeter=0;" parent="1" edge="1">
          <mxGeometry x="-0.0426" y="-10" width="50" height="50" relative="1" as="geometry">
            <mxPoint x="243.15999999999974" y="2350" as="sourcePoint" />
            <mxPoint x="-6.580000000000041" y="2350" as="targetPoint" />
            <mxPoint as="offset" />
          </mxGeometry>
        </mxCell>
        <mxCell id="zkrP5aUea3qUz_NBRGNI-41" value="Route status" style="endArrow=classic;html=1;rounded=0;exitX=-0.2;exitY=0.507;exitDx=0;exitDy=0;exitPerimeter=0;dashed=1;" parent="1" edge="1">
          <mxGeometry x="-0.0426" y="-10" width="50" height="50" relative="1" as="geometry">
            <mxPoint x="487.85" y="1110" as="sourcePoint" />
            <mxPoint x="249.85000000000002" y="1110.2600000000002" as="targetPoint" />
            <mxPoint as="offset" />
          </mxGeometry>
        </mxCell>
        <mxCell id="zkrP5aUea3qUz_NBRGNI-59" value="" style="rounded=0;whiteSpace=wrap;html=1;" parent="1" vertex="1">
          <mxGeometry x="488.99" y="1040" width="10" height="90" as="geometry" />
        </mxCell>
        <mxCell id="zkrP5aUea3qUz_NBRGNI-81" value="Querying for route status at given shift" style="endArrow=classic;html=1;rounded=0;exitX=1;exitY=0.482;exitDx=0;exitDy=0;exitPerimeter=0;entryX=-0.133;entryY=0.479;entryDx=0;entryDy=0;entryPerimeter=0;" parent="1" edge="1">
          <mxGeometry x="0.0085" y="-11" width="50" height="50" relative="1" as="geometry">
            <mxPoint x="251.46000000000004" y="1060.2800000000002" as="sourcePoint" />
            <mxPoint x="490.1300000000001" y="1060" as="targetPoint" />
            <Array as="points" />
            <mxPoint as="offset" />
          </mxGeometry>
        </mxCell>
        <mxCell id="6wIm65cFakoA2pX9dvvW-37" value="&lt;font style=&quot;font-size: 17px;&quot;&gt;[ Until the route is assigned ]&lt;/font&gt;" style="text;html=1;strokeColor=none;fillColor=none;align=center;verticalAlign=middle;whiteSpace=wrap;rounded=0;fontSize=15;" parent="1" vertex="1">
          <mxGeometry x="-518.86" y="1040" width="110" height="11" as="geometry" />
        </mxCell>
        <mxCell id="6wIm65cFakoA2pX9dvvW-39" value="&lt;font style=&quot;font-size: 17px;&quot;&gt;[ Until the section is assigned ]&lt;/font&gt;" style="text;html=1;strokeColor=none;fillColor=none;align=center;verticalAlign=middle;whiteSpace=wrap;rounded=0;fontSize=15;" parent="1" vertex="1">
          <mxGeometry x="-512.72" y="1920" width="110" height="11" as="geometry" />
        </mxCell>
        <mxCell id="DvP52ncTQiw58WvtzydE-1" value="" style="endArrow=none;dashed=1;html=1;rounded=0;exitX=0;exitY=0.229;exitDx=0;exitDy=0;exitPerimeter=0;strokeWidth=3;" parent="1" edge="1">
          <mxGeometry width="50" height="50" relative="1" as="geometry">
            <mxPoint x="-579.9999999999999" y="670.0025000000005" as="sourcePoint" />
            <mxPoint x="611.1399999999995" y="671.6700000000001" as="targetPoint" />
            <Array as="points" />
          </mxGeometry>
        </mxCell>
      </root>
    </mxGraphModel>
  </diagram>
</mxfile>
